<svg xmlns="http://www.w3.org/2000/svg" xmlns:xlink="http://www.w3.org/1999/xlink" version="1.0" x="0px" y="0px" viewBox="0 0 100 125" enable-background="new 0 0 100 100" xml:space="preserve"><path d="M88.288,42.289C81.172,50.01,69.036,55,55,55h-5V43.031C42.725,39.137,38.333,32.832,38.333,26  c0-0.515,0.054-1.019,0.101-1.523C21.986,27.787,10,37.956,10,50c0,22.093,26.864,40,60.003,40V73.069  C81.946,68.457,90,59.863,90,50C90,47.318,89.392,44.73,88.288,42.289z M20,55v-6.667h23.333V55H20z M33.333,68.333h-6.667v-6.666  h6.667V68.333z M63.333,68.333H40v-6.666h23.333V68.333z"/><path d="M66.67,10c-12.888,0-23.336,7.165-23.336,16c0,5.918,4.7,11.074,11.667,13.844V50c19.329,0,35-10.742,35-24  C90,17.165,79.554,10,66.67,10z M60.003,30c-1.842,0-3.336-1.491-3.336-3.333c0-1.842,1.494-3.333,3.336-3.333  c1.84,0,3.334,1.491,3.334,3.333C63.337,28.509,61.843,30,60.003,30z M73.337,30C71.494,30,70,28.509,70,26.667  c0-1.842,1.494-3.333,3.337-3.333c1.839,0,3.333,1.491,3.333,3.333C76.67,28.509,75.176,30,73.337,30z"/></svg>