<svg xmlns="http://www.w3.org/2000/svg" xmlns:xlink="http://www.w3.org/1999/xlink" version="1.0" x="0px" y="0px" viewBox="0 0 100 125" enable-background="new 0 0 100 100" xml:space="preserve"><circle cx="31.667" cy="40" r="5"/><circle cx="31.667" cy="70" r="5"/><circle cx="68.333" cy="40" r="5"/><circle cx="68.333" cy="70" r="5"/><path d="M83.333,10H16.667C13,10,10,13,10,16.667v66.667C10,86.999,13,90,16.667,90h66.667C86.999,90,90,86.999,90,83.333V16.667  C90,13,86.999,10,83.333,10z M83.333,23.333h-6.666v-6.667h6.666V23.333z M75,46.667h-1.719c-1.387,1.034-3.093,1.667-4.948,1.667  c-1.861,0-3.561-0.633-4.947-1.667h-1.719c-1.836,0-3.334,1.501-3.334,3.333v3.333h-5V30h30v23.333h-5V50  C78.333,48.167,76.829,46.667,75,46.667z M38.333,46.667h-1.719c-1.387,1.034-3.089,1.667-4.948,1.667  c-1.858,0-3.561-0.633-4.948-1.667H25c-1.833,0-3.333,1.501-3.333,3.333v3.333h-5V30h30v23.333h-5V50  C41.667,48.167,40.166,46.667,38.333,46.667z M63.333,23.333v-6.667H70v6.667H63.333z M56.667,16.667v6.667h-40v-6.667H56.667z   M38.333,76.667h-1.719c-1.387,1.035-3.089,1.666-4.948,1.666c-1.858,0-3.561-0.631-4.948-1.666H25  c-1.833,0-3.333,1.504-3.333,3.333v3.333h-5V60h30v23.333h-5V80C41.667,78.171,40.166,76.667,38.333,76.667z M78.333,83.333V80  c0-1.829-1.504-3.333-3.333-3.333h-1.719c-1.387,1.035-3.093,1.666-4.948,1.666c-1.861,0-3.561-0.631-4.947-1.666h-1.719  c-1.836,0-3.334,1.504-3.334,3.333v3.333h-5V60h30v23.333H78.333z"/></svg>